<?xml version="1.0" encoding="UTF-8"?>
<!-- Generator: Adobe Illustrator 25.3.1, SVG Export Plug-In . SVG Version: 6.00 Build 0)  -->
<svg version="1.1" id="Ebene_1" xmlns="http://www.w3.org/2000/svg" xmlns:xlink="http://www.w3.org/1999/xlink" x="0px" y="0px" width="100px" height="16.5px" viewBox="0 0 200 33" style="enable-background:new 0 0 200 33;" xml:space="preserve">
<style type="text/css">
	.st0{fill:#B00739;}
</style>
<g>
	<path class="st0" d="M46.9,18.6c-0.7-4.2-4.1-7.7-8.3-8.7c-1.9-0.4-3.6-0.3-5.3,0.1V2.4c0-0.9-0.7-1.7-1.7-1.7h-2.2   c-0.9,0-1.7,0.7-1.7,1.7v11.8l0,0c0,0.4,0.1,0.9,0.5,1.2l0.9,0.9c0.7,0.7,1.8,0.6,2.4-0.1c1.4-1.6,3.5-2.4,5.9-1.9   c2.5,0.5,4.5,2.4,5,4.9C43.1,23.4,40,27,36,27c-1.8,0-3.4-0.7-4.6-1.9l0,0c-0.1-0.1-0.1-0.1-0.1-0.1l0,0l-6.2-6.1l0,0l-6-6l0,0   c-2.4-2.4-6-3.7-9.9-3c-4.3,0.9-7.7,4.3-8.6,8.6c-1.3,7,3.9,13.2,10.7,13.2c3.2,0,6-1.3,8-3.5c0.6-0.6,0.5-1.7-0.1-2.3l-0.9-0.9   c-0.7-0.7-1.8-0.6-2.4,0.1c-1.4,1.6-3.5,2.4-5.9,1.9c-2.5-0.4-4.5-2.4-5-4.8c-0.9-4.1,2.3-7.8,6.2-7.8c1.8,0,3.4,0.7,4.6,2l0,0   l6.2,6.2l0,0l6,6l0.1,0.1l0.2,0.2l0,0c2,1.9,4.6,3,7.5,3C42.8,31.6,48.1,25.6,46.9,18.6z"/>
	<g>
		<g>
			<g>
				<g>
					<path d="M198.1,23.3h-2.2c-0.7,0-0.8,0.3-0.8,1c0,0.3,0,0.5,0,0.7c0,1.3-0.9,2.2-2.1,2.2c-1.1,0-2.2-0.7-2.2-2.6V13.9h5.4       c0.6,0,1-0.3,1-0.9v-2.4c0-0.6-0.3-0.9-1-0.9h-5.4V2.1c0-0.9-0.5-1.3-1.4-1.3H188c-0.8,0-1.3,0.4-1.5,1.2l-0.7,7.7h-2.6       c-0.6,0-1,0.4-1,0.9V13c0,0.6,0.3,0.9,1,0.9h2.4v10.4c0,5.6,3.6,7.3,7.2,7.3c4,0,6.8-2.1,6.8-6c0-0.1-0.1-0.9-0.2-1.6       C199,23.5,198.6,23.3,198.1,23.3z"/>
				</g>
				<path d="M79.9,9.7h-2.2c-0.9,0-1.7,0.7-1.7,1.7v1.9c-1.8-2.6-4.4-3.5-7.3-3.5c-6.2,0-10.5,4.9-10.5,11s4.3,10.9,10.6,10.9      c2.8,0,5.4-1,7.2-3.5v1.9c0,0.9,0.7,1.7,1.7,1.7h2.2c0.9,0,1.7-0.7,1.7-1.7V11.3C81.5,10.5,80.7,9.7,79.9,9.7z M69.3,27.3      c-3.7,0-6.6-3-6.6-6.6s3-6.6,6.6-6.6c3.5,0,6.5,2.8,6.6,6.3v0.6C75.8,24.5,72.9,27.3,69.3,27.3z"/>
				<path d="M99.8,9.6c-2.8,0-5.4,1-7.2,3.5V2.4c0-0.9-0.7-1.7-1.7-1.7h-2.2c-0.9,0-1.7,0.7-1.7,1.7v27.5c0,0.9,0.7,1.7,1.7,1.7h2.2      c0.9,0,1.7-0.7,1.7-1.7v-2c1.8,2.5,4.4,3.5,7.3,3.5c6.2,0,10.5-4.9,10.5-11S106,9.5,99.8,9.6z M99.2,27.2      c-3.2,0-5.9-2.3-6.5-5.3v-2.8c0.6-3,3.3-5.3,6.5-5.3c3.7,0,6.6,3,6.6,6.6C105.8,24.2,102.9,27.2,99.2,27.2z"/>
				<path d="M120.6,31.6h-3.9c-0.5,0-0.9-0.4-0.9-0.9V10.5c0-0.5,0.4-0.9,0.9-0.9h3.9c0.5,0,0.9,0.4,0.9,0.9v20.3      C121.5,31.3,121.1,31.6,120.6,31.6z"/>
				<circle cx="118.9" cy="3.5" r="2.8"/>
				<path d="M127.1,20.5c0,6.1,4.2,11,10.5,11c2.8,0,5.4-1,7.3-3.5v2c0,0.9,0.7,1.7,1.7,1.7h2.2c0.9,0,1.7-0.7,1.7-1.7V2.5      c0-0.9-0.7-1.7-1.7-1.7h-2.2c-0.9,0-1.7,0.7-1.7,1.7v10.6c-1.8-2.5-4.4-3.5-7.2-3.5C131.4,9.5,127.1,14.3,127.1,20.5z       M131.6,20.5c0-3.7,3-6.6,6.6-6.6c3.2,0,5.8,2.3,6.5,5.3v2.8c-0.6,3-3.4,5.3-6.5,5.3C134.6,27.2,131.6,24.2,131.6,20.5z"/>
				<path d="M177.5,9.7h-2.2c-0.9,0-1.7,0.7-1.7,1.7v1.9c-1.8-2.6-4.4-3.5-7.3-3.5c-6.2,0-10.5,4.9-10.5,11s4.3,10.9,10.6,10.9      c2.8,0,5.4-1,7.2-3.5v1.9c0,0.9,0.7,1.7,1.7,1.7h2.2c0.9,0,1.7-0.7,1.7-1.7V11.3C179.2,10.5,178.4,9.7,177.5,9.7z M167,27.3      c-3.7,0-6.6-3-6.6-6.6s3-6.6,6.6-6.6c3.5,0,6.5,2.8,6.6,6.3v0.6C173.5,24.5,170.6,27.3,167,27.3z"/>
			</g>
		</g>
	</g>
</g>
</svg>