<?xml version="1.0" encoding="UTF-8" standalone="no"?>
<svg
   viewBox="0 0 64 64"
   version="1.1"
   id="svg4"
   xmlns="http://www.w3.org/2000/svg">
  <defs>
    <linearGradient id="mainGradient" x1="0" y1="0" x2="1" y2="1">
      <stop offset="0%" stop-color="#fef9ff" />
      <stop offset="100%" stop-color="#293133" />
    </linearGradient>
  </defs>

  <g transform="matrix(1.4905814,0,0,1.4662969,-10.579034,-7.1813286)">
    <g fill="url(#mainGradient)">
      <path
         d="m 30.667634,20.056367 c 1.716085,-0.489673 3.287547,-1.186375 4.710937,-2.091796 1.453482,-0.915498 2.692763,-2.011951 3.718751,-3.28711 1.040237,-1.275159 1.844069,-2.696199 2.414062,-4.265625 0.584243,-1.5694249 0.876953,-3.2453903 0.876953,-5.0273431 V 4.9919144 h -3.527343 v 0.294922 c 0,1.3732478 -0.220365,2.6561923 -0.66211,3.8496098 -0.427494,1.1934178 -1.018197,2.2556528 -1.773438,3.1874998 -0.74099,0.931846 -1.617168,1.715936 -2.628906,2.353515 -0.980467,0.626701 -2.02453,1.060975 -3.128906,1.308594 z" />
      <path
         d="m 30.722874,28.587047 c 1.93071,-0.424536 3.744305,-1.032973 5.437499,-1.826172 1.70998,-0.801062 3.27619,-1.757464 4.701172,-2.869141 1.439233,-1.128025 2.721921,-2.385795 3.847657,-3.775391 1.125736,-1.389596 2.07426,-2.877116 2.84375,-4.46289 0.78374,-1.585774 1.381676,-3.245608 1.794922,-4.978516 0.413245,-1.7492562 0.619141,-3.531054 0.619141,-5.3457032 V 4.9366553 h -3.525392 v 0.294922 c 0,1.6184708 -0.193379,3.1795607 -0.578124,4.6835945 -0.370496,1.5040332 -0.905275,2.9179842 -1.603516,4.2421872 -0.683992,1.324203 -1.509527,2.558752 -2.478515,3.703125 -0.968989,1.128025 -2.038546,2.141865 -3.207032,3.041016 -1.168485,0.89915 -2.422235,1.667107 -3.761718,2.304687 -1.30773,0.613026 -2.671106,1.081722 -4.089844,1.408203 z" />
      <rect
         width="3.8389032"
         height="43.661903"
         x="7.0197086"
         y="4.9357328" />
      <rect
         width="3.8389032"
         height="43.609013"
         x="26.907455"
         y="4.9812336" />
      <path
         d="m 10.788473,4.9221914 0.02344,5.8183586 16.203125,19.599609 v -5.929687 z" />
      <path
         d="M 26.928021,4.9829474 26.904643,10.801307 10.743277,30.400916 V 24.471229 Z" />
    </g>
  </g>
</svg>
